<svg width="233" height="233" viewBox="0 0 233 233" fill="none" xmlns="http://www.w3.org/2000/svg">
<g clip-path="url(#clip0_154_160)">
<path d="M217.43 59.3713L212.43 50.5913C212.038 49.9031 211.492 49.3149 210.835 48.8725C210.178 48.4302 209.428 48.1456 208.643 48.0411C207.858 47.9365 207.059 48.0148 206.309 48.2698C205.56 48.5249 204.879 48.9497 204.32 49.5113L192.82 61.0013C191.98 61.8462 191.457 62.9558 191.34 64.1422C191.223 65.3285 191.52 66.5187 192.18 67.5113C196.374 73.9191 199.734 80.8347 202.18 88.0913C206.751 101.657 208.027 116.115 205.904 130.271C203.78 144.427 198.318 157.875 189.969 169.502C181.62 181.13 170.623 190.603 157.888 197.139C145.153 203.675 131.045 207.087 116.73 207.091C101.994 207.132 87.4769 203.528 74.4704 196.601L93.9204 177.141C105.973 181.7 119.115 182.539 131.649 179.549C144.183 176.56 155.533 169.88 164.23 160.372C172.928 150.865 178.574 138.967 180.439 126.217C182.303 113.467 180.301 100.451 174.69 88.8513C174.334 88.1085 173.805 87.462 173.147 86.966C172.489 86.4701 171.722 86.1392 170.91 86.001C170.098 85.8629 169.265 85.9216 168.48 86.1722C167.695 86.4228 166.982 86.858 166.4 87.4413L154.76 99.0013C154.14 99.621 153.688 100.389 153.448 101.233C153.208 102.077 153.188 102.968 153.39 103.821L154.39 108.001C156.111 115.323 155.657 122.989 153.083 130.056C150.51 137.124 145.929 143.287 139.903 147.788C133.876 152.289 126.667 154.933 119.16 155.396C111.652 155.858 104.173 154.119 97.6404 150.391L92.5103 147.451C91.53 146.887 90.3905 146.662 89.2692 146.812C88.1479 146.962 87.1076 147.479 86.3104 148.281L38.8004 195.781C38.2817 196.3 37.8799 196.923 37.6217 197.61C37.3635 198.296 37.2549 199.03 37.3032 199.762C37.3515 200.494 37.5555 201.207 37.9017 201.853C38.2478 202.5 38.7281 203.065 39.3104 203.511L46.3104 208.881C66.4973 224.438 91.2848 232.839 116.77 232.761C137.06 232.735 156.989 227.388 174.566 217.252C192.143 207.117 206.755 192.549 216.942 175.001C227.129 157.454 232.535 137.541 232.621 117.251C232.706 96.9616 227.469 77.0041 217.43 59.3713Z" fill="url(#paint0_linear_154_160)"/>
<path d="M187.21 24.8202C167.025 9.25804 142.237 0.853361 116.75 0.93021C96.4498 0.945989 76.5095 6.28865 58.9211 16.4244C41.3326 26.5601 26.712 41.134 16.52 58.6899C6.32803 76.2457 0.921546 96.1688 0.840763 116.469C0.759979 136.768 6.00772 156.734 16.0597 174.37L21.0597 183.14C21.4535 183.828 22.0002 184.415 22.6576 184.857C23.315 185.299 24.0654 185.584 24.8506 185.69C25.6358 185.795 26.4347 185.718 27.1855 185.465C27.9362 185.212 28.6185 184.789 29.1797 184.23L40.6597 172.75C41.4947 171.904 42.0139 170.797 42.1304 169.614C42.2468 168.43 41.9536 167.243 41.2997 166.25C37.1025 159.845 33.7419 152.929 31.2997 145.67C26.7292 132.105 25.4528 117.647 27.5762 103.49C29.6995 89.3342 35.1616 75.8866 43.5108 64.2592C51.8601 52.6318 62.8568 43.1585 75.592 36.6223C88.3272 30.0861 102.435 26.6748 116.75 26.6702C131.485 26.6369 146 30.251 159 37.1902L139.54 56.6402C129.791 52.9456 119.292 51.6731 108.943 52.9322C98.5945 54.1912 88.7063 57.9441 80.1283 63.8684C71.5503 69.7926 64.5389 77.7111 59.6968 86.9433C54.8547 96.1754 52.3265 106.445 52.3297 116.87C52.3297 117.94 52.6197 122.82 52.7097 123.66C53.4983 131.046 55.5515 138.241 58.7797 144.93C59.1371 145.673 59.6674 146.32 60.326 146.815C60.9846 147.311 61.7525 147.642 62.5653 147.78C63.3781 147.918 64.2121 147.86 64.9975 147.609C65.783 147.359 66.497 146.923 67.0797 146.34L78.7197 134.69C79.3396 134.072 79.7917 133.306 80.0331 132.464C80.2746 131.622 80.2975 130.733 80.0997 129.88L79.0997 125.69C77.3766 118.368 77.8295 110.702 80.4027 103.633C82.976 96.5646 87.5575 90.4014 93.5846 85.9004C99.6118 81.3994 106.822 78.7566 114.331 78.2964C121.839 77.8363 129.318 79.5789 135.85 83.3102L140.98 86.2502C141.961 86.8099 143.1 87.0317 144.22 86.8818C145.34 86.7319 146.38 86.2184 147.18 85.4202L194.68 37.9202C195.199 37.4014 195.602 36.7777 195.861 36.0908C196.12 35.4039 196.23 34.6696 196.182 33.937C196.135 33.2044 195.932 32.4903 195.586 31.8425C195.241 31.1946 194.761 30.6279 194.18 30.1802L187.21 24.8202Z" fill="url(#paint1_linear_154_160)"/>
</g>
<defs>
<linearGradient id="paint0_linear_154_160" x1="75.8604" y1="240.181" x2="239.06" y2="76.9812" gradientUnits="userSpaceOnUse">
<stop stop-color="#B090F5"/>
<stop offset="1" stop-color="#5FBFFF"/>
</linearGradient>
<linearGradient id="paint1_linear_154_160" x1="-5.57032" y1="156.75" x2="157.64" y2="-6.44978" gradientUnits="userSpaceOnUse">
<stop stop-color="#68D7FA"/>
<stop offset="1" stop-color="#7EF1B3"/>
</linearGradient>
<clipPath id="clip0_154_160">
<rect width="233" height="233" fill="white"/>
</clipPath>
</defs>
</svg>
