<svg width="21" height="18" viewBox="0 0 21 18" fill="none" xmlns="http://www.w3.org/2000/svg">
<path fill-rule="evenodd" clip-rule="evenodd" d="M0.778954 6.3936H17.4398C17.6486 6.3936 17.843 6.4728 17.987 6.624L20.6222 9.2736C21.1118 9.7632 20.7662 10.5984 20.075 10.5984H3.41415C3.20535 10.5984 3.01095 10.5192 2.86695 10.368L0.231754 7.7184C-0.257846 7.236 0.0877534 6.3936 0.778954 6.3936ZM0.224554 2.88L2.85975 0.2304C3.01095 0.0791998 3.20535 0 3.40695 0H20.0606C20.7518 0 21.1046 0.8352 20.6078 1.3248L17.9798 3.9744C17.8358 4.1256 17.6342 4.2048 17.4326 4.2048H0.778954C0.0877534 4.2048 -0.257846 3.3696 0.224554 2.88ZM20.615 14.1264L17.9798 16.7832C17.8358 16.9272 17.6342 17.0136 17.4326 17.0136H0.778954C0.0877534 17.0136 -0.257846 16.1784 0.224554 15.6888L2.85975 13.032C3.01095 12.888 3.20535 12.8016 3.40695 12.8016H20.0606C20.759 12.7944 21.1118 13.6296 20.615 14.1264Z" fill="url(#paint0_linear_154_149)"/>
<defs>
<linearGradient id="paint0_linear_154_149" x1="1.18647" y1="17.7383" x2="19.6602" y2="-0.735492" gradientUnits="userSpaceOnUse">
<stop stop-color="#CB4EE8"/>
<stop offset="1" stop-color="#10F4B1"/>
</linearGradient>
</defs>
</svg>
